<svg width="27" height="27" viewBox="0 0 27 27" fill="none" xmlns="http://www.w3.org/2000/svg">
<path d="M7.85362 5.0625C8.63156 5.0625 9.35044 5.12156 10.0103 5.29875C10.6684 5.41688 11.2101 5.66325 11.691 5.95856C12.1736 6.25556 12.5297 6.67744 12.7727 7.21912C13.0089 7.75912 13.1372 8.41894 13.1372 9.13781C13.1372 9.97481 12.9583 10.6937 12.5364 11.2337C12.1736 11.7737 11.5813 12.2563 10.854 12.6124C11.8766 12.9094 12.6546 13.4494 13.1288 14.1683C13.6029 14.8871 13.9067 15.7832 13.9067 16.8058C13.9067 17.6428 13.7295 18.3617 13.4257 18.9624C13.1227 19.5671 12.6681 20.0828 12.1061 20.4592C11.5661 20.8221 10.9063 21.1174 10.1874 21.2962C9.48324 21.4822 8.75906 21.5819 8.03081 21.5932L0 21.6051V5.0625H7.85362ZM7.37269 11.7754C8.03081 11.7754 8.57081 11.5982 8.98763 11.2944C9.40275 10.9907 9.58669 10.4558 9.58669 9.79763C9.58669 9.43313 9.52763 9.07875 9.4095 8.84081C9.28164 8.59966 9.09614 8.39387 8.8695 8.24175C8.6247 8.10827 8.36303 8.00837 8.09156 7.94475C7.79456 7.88569 7.49081 7.88569 7.13475 7.88569H3.66188V11.7838C3.66188 11.7754 7.37437 11.7754 7.37437 11.7754H7.37269ZM7.54987 18.8511C7.91269 18.8511 8.26875 18.792 8.5725 18.7329C8.8695 18.6739 9.17325 18.5541 9.4095 18.3684C9.64575 18.1828 9.83138 18.0056 10.0103 17.7103C10.1284 17.4133 10.2465 17.0505 10.2465 16.6286C10.2465 15.7916 10.0103 15.1909 9.52763 14.769C9.04669 14.4062 8.38688 14.229 7.60894 14.229H3.66188V18.8426H7.55156V18.8511H7.54987ZM19.1227 18.792C19.6054 19.2729 20.3226 19.5109 21.2794 19.5109C21.9375 19.5109 22.5382 19.332 23.0209 19.0282C23.5018 18.6654 23.7971 18.3094 23.9153 17.9482H26.8515C26.3689 19.3843 25.65 20.4069 24.6949 21.0667C23.7397 21.6658 22.5973 22.0219 21.2186 22.0219C20.337 22.0258 19.4627 21.8626 18.6418 21.5409C17.9031 21.2663 17.2439 20.8129 16.7231 20.2213C16.1677 19.6696 15.7552 18.9907 15.5216 18.2436C15.2263 17.4656 15.0997 16.6286 15.0997 15.6651C15.0997 14.769 15.2179 13.9236 15.5216 13.1456C15.8254 12.3694 16.2405 11.7079 16.7822 11.1088C17.3222 10.5688 17.982 10.0862 18.7009 9.78919C19.5024 9.47004 20.3575 9.30681 21.2203 9.30825C22.2429 9.30825 23.139 9.48544 23.9169 9.90731C24.6932 10.3292 25.2956 10.8051 25.7766 11.5239C26.2575 12.1821 26.6136 12.96 26.8582 13.7987C26.9764 14.6357 27.0354 15.4794 26.9764 16.4362H18.2858C18.2858 17.415 18.6401 18.3094 19.1227 18.792ZM22.9028 12.4942C22.4809 12.0724 21.8194 11.8344 21.0414 11.8344C20.5014 11.8344 20.0863 11.9526 19.7235 12.1314C19.3607 12.3086 19.1228 12.5533 18.8865 12.7896C18.6659 13.0212 18.5191 13.3131 18.4646 13.6283C18.4039 13.9236 18.3465 14.1683 18.3465 14.4045H23.7397C23.6216 13.5169 23.3179 12.9161 22.9011 12.4942H22.9028ZM17.6259 6.20325H24.3388V7.81819H17.6259V6.20325Z" fill="black"/>
</svg>
