<svg width="38" height="38" viewBox="0 0 38 38" fill="none" xmlns="http://www.w3.org/2000/svg">
<circle cx="18.7311" cy="18.7313" r="17.7311" transform="rotate(-90 18.7311 18.7313)" stroke="black" stroke-width="2"/>
<path d="M22.5 18C21.9477 18 21.5 18.4477 21.5 19C21.5 19.5523 21.9477 20 22.5 20L22.5 18ZM23.7071 19.7071C24.0976 19.3166 24.0976 18.6834 23.7071 18.2929L17.3431 11.9289C16.9526 11.5384 16.3195 11.5384 15.9289 11.9289C15.5384 12.3195 15.5384 12.9526 15.9289 13.3431L21.5858 19L15.9289 24.6569C15.5384 25.0474 15.5384 25.6805 15.9289 26.0711C16.3195 26.4616 16.9526 26.4616 17.3431 26.0711L23.7071 19.7071ZM22.5 20L23 20L23 18L22.5 18L22.5 20Z" fill="black"/>
</svg>
