<svg width="39" height="39" viewBox="0 0 39 39" fill="none" xmlns="http://www.w3.org/2000/svg">
<circle cx="19.4752" cy="19.2762" r="17.7311" transform="rotate(-90 19.4752 19.2762)" stroke="#2452AE" stroke-width="2"/>
<path d="M23.2441 18.5452C22.6919 18.5452 22.2441 18.9929 22.2441 19.5452C22.2441 20.0975 22.6919 20.5452 23.2441 20.5452L23.2441 18.5452ZM24.4512 20.2523C24.8418 19.8617 24.8418 19.2286 24.4512 18.8381L18.0873 12.4741C17.6968 12.0836 17.0636 12.0836 16.6731 12.4741C16.2825 12.8646 16.2825 13.4978 16.6731 13.8883L22.3299 19.5452L16.6731 25.202C16.2825 25.5925 16.2825 26.2257 16.6731 26.6162C17.0636 27.0068 17.6968 27.0068 18.0873 26.6162L24.4512 20.2523ZM23.2441 20.5452L23.7441 20.5452L23.7441 18.5452L23.2441 18.5452L23.2441 20.5452Z" fill="#2452AE"/>
</svg>
