<svg width="22" height="28" viewBox="0 0 22 28" fill="none" xmlns="http://www.w3.org/2000/svg">
<path fill-rule="evenodd" clip-rule="evenodd" d="M16.5375 5.34906H1.8375V26.1509H16.5375V5.34906ZM1.8375 3.5C0.822677 3.5 0 4.32785 0 5.34906V26.1509C0 27.1722 0.822677 28 1.8375 28H16.5375C17.5523 28 18.375 27.1722 18.375 26.1509V5.34906C18.375 4.32785 17.5523 3.5 16.5375 3.5H1.8375Z" fill="black"/>
<path d="M4.375 1.81253H18.2786C18.7555 1.81253 19.2129 2.0035 19.5501 2.34341C19.8874 2.68333 20.0768 3.14435 20.0768 3.62507V24.955L20.4778 25.2232C20.6132 25.314 20.7705 25.3661 20.9329 25.374C21.0954 25.3818 21.2569 25.3451 21.4003 25.2677C21.5437 25.1903 21.6635 25.0752 21.7471 24.9346C21.8307 24.794 21.8749 24.6331 21.875 24.4692V3.62507C21.875 2.66364 21.4961 1.74159 20.8216 1.06176C20.1472 0.381926 19.2324 0 18.2786 0L7.48947 0C6.85819 1.6165e-05 6.23803 0.167525 5.69133 0.48569C5.14463 0.803855 4.69064 1.26147 4.375 1.81253V1.81253Z" fill="black"/>
</svg>
