<svg width="27" height="27" viewBox="0 0 27 27" fill="none" xmlns="http://www.w3.org/2000/svg">
<path d="M15.2297 13.5C15.2297 17.6934 11.8209 21.0938 7.614 21.0938C6.61544 21.0951 5.62641 20.8997 4.70335 20.5188C3.7803 20.1379 2.94131 19.5789 2.23428 18.8738C1.52726 18.1687 0.966042 17.3312 0.582683 16.4091C0.199325 15.4871 0.00132875 14.4986 0 13.5C0 9.30488 3.40875 5.90626 7.614 5.90626C8.6127 5.90471 9.60192 6.09991 10.5252 6.48071C11.4484 6.86151 12.2876 7.42046 12.9948 8.12562C13.702 8.83079 14.2634 9.66837 14.6468 10.5905C15.0303 11.5127 15.2284 12.5013 15.2297 13.5ZM23.5828 13.5C23.5828 17.4488 21.8784 20.6483 19.7758 20.6483C17.6732 20.6483 15.9688 17.4471 15.9688 13.5C15.9688 9.55126 17.6732 6.35176 19.7758 6.35176C21.8784 6.35176 23.5828 9.55295 23.5828 13.5ZM27 13.5C27 17.037 26.4009 19.9041 25.6601 19.9041C24.921 19.9041 24.3219 17.0353 24.3219 13.5C24.3219 9.96301 24.921 7.09595 25.6618 7.09595C26.4009 7.09595 27 9.96301 27 13.5Z" fill="black"/>
</svg>
