<svg width="38" height="38" viewBox="0 0 38 38" fill="none" xmlns="http://www.w3.org/2000/svg">
<circle cx="18.7311" cy="19.0543" r="17.7311" transform="rotate(-90 18.7311 19.0543)" stroke="white" stroke-width="2"/>
<path d="M22.5 18.3232C21.9477 18.3232 21.5 18.771 21.5 19.3232C21.5 19.8755 21.9477 20.3232 22.5 20.3232L22.5 18.3232ZM23.7071 20.0303C24.0976 19.6398 24.0976 19.0067 23.7071 18.6161L17.3431 12.2522C16.9526 11.8616 16.3195 11.8616 15.9289 12.2522C15.5384 12.6427 15.5384 13.2759 15.9289 13.6664L21.5858 19.3232L15.9289 24.9801C15.5384 25.3706 15.5384 26.0038 15.9289 26.3943C16.3195 26.7848 16.9526 26.7848 17.3431 26.3943L23.7071 20.0303ZM22.5 20.3232L23 20.3232L23 18.3232L22.5 18.3232L22.5 20.3232Z" fill="white"/>
</svg>
